<?xml version="1.0" encoding="UTF-8" standalone="no"?>
<!-- Created with Inkscape (http://www.inkscape.org/) -->

<svg
   xmlns:dc="http://purl.org/dc/elements/1.1/"
   xmlns:cc="http://creativecommons.org/ns#"
   xmlns:rdf="http://www.w3.org/1999/02/22-rdf-syntax-ns#"
   xmlns:svg="http://www.w3.org/2000/svg"
   xmlns="http://www.w3.org/2000/svg"
   xmlns:xlink="http://www.w3.org/1999/xlink"
   xmlns:sodipodi="http://sodipodi.sourceforge.net/DTD/sodipodi-0.dtd"
   xmlns:inkscape="http://www.inkscape.org/namespaces/inkscape"
   width="128"
   height="128"
   id="svg5767"
   version="1.1"
   inkscape:version="0.48.1 r9760"
   sodipodi:docname="Tip_stickie.svg">
  <defs
     id="defs5769">
    <linearGradient
       id="linearGradient6350">
      <stop
         style="stop-color:#b7bec8;stop-opacity:1;"
         offset="0"
         id="stop6352" />
      <stop
         style="stop-color:#ffffff;stop-opacity:1;"
         offset="1"
         id="stop6354" />
    </linearGradient>
    <linearGradient
       id="linearGradient6336">
      <stop
         style="stop-color:#3771c8;stop-opacity:1;"
         offset="0"
         id="stop6338" />
      <stop
         style="stop-color:#749cd9;stop-opacity:1;"
         offset="1"
         id="stop6340" />
    </linearGradient>
    <inkscape:perspective
       sodipodi:type="inkscape:persp3d"
       inkscape:vp_x="10 : 507.60966 : 1"
       inkscape:vp_y="0 : 1000 : 0"
       inkscape:vp_z="388.38019 : 56.18109 : 1"
       inkscape:persp3d-origin="372.04724 : 350.78739 : 1"
       id="perspective5777" />
    <linearGradient
       inkscape:collect="always"
       xlink:href="#linearGradient6350"
       id="linearGradient6390"
       gradientUnits="userSpaceOnUse"
       x1="-1228.9572"
       y1="530.2193"
       x2="-1046.0428"
       y2="530.2193"
       gradientTransform="matrix(0.21115535,-0.00198827,9.5075222e-4,0.17215391,320.98394,-66.56238)" />
    <linearGradient
       inkscape:collect="always"
       xlink:href="#linearGradient6336"
       id="linearGradient6392"
       gradientUnits="userSpaceOnUse"
       x1="-1120.349"
       y1="359.39752"
       x2="-1002.9916"
       y2="359.39752" />
    <linearGradient
       inkscape:collect="always"
       xlink:href="#linearGradient6336"
       id="linearGradient6396"
       gradientUnits="userSpaceOnUse"
       x1="-940.54187"
       y1="349.29602"
       x2="-889.85449"
       y2="349.29602" />
    <linearGradient
       inkscape:collect="always"
       xlink:href="#linearGradient6336"
       id="linearGradient6400"
       gradientUnits="userSpaceOnUse"
       gradientTransform="matrix(0.17215391,-0.00124145,0.00124145,0.17215391,274.42331,859.28619)"
       x1="-1057.7493"
       y1="526.18109"
       x2="-930.67377"
       y2="526.18109" />
    <linearGradient
       inkscape:collect="always"
       xlink:href="#linearGradient6350"
       id="linearGradient6413"
       gradientUnits="userSpaceOnUse"
       gradientTransform="matrix(0.21115535,-0.00198827,9.5075222e-4,0.17215391,320.98394,-66.56238)"
       x1="-1228.9572"
       y1="530.2193"
       x2="-1046.0428"
       y2="530.2193" />
    <linearGradient
       inkscape:collect="always"
       xlink:href="#linearGradient6336"
       id="linearGradient6415"
       gradientUnits="userSpaceOnUse"
       x1="-1120.349"
       y1="359.39752"
       x2="-1002.9916"
       y2="359.39752" />
    <linearGradient
       inkscape:collect="always"
       xlink:href="#linearGradient6336"
       id="linearGradient6417"
       gradientUnits="userSpaceOnUse"
       gradientTransform="matrix(0.17215391,-0.00124145,0.00124145,0.17215391,274.42331,859.28619)"
       x1="-1057.7493"
       y1="526.18109"
       x2="-930.67377"
       y2="526.18109" />
    <linearGradient
       inkscape:collect="always"
       xlink:href="#linearGradient6336"
       id="linearGradient6419"
       gradientUnits="userSpaceOnUse"
       x1="-940.54187"
       y1="349.29602"
       x2="-889.85449"
       y2="349.29602" />
    <filter
       inkscape:collect="always"
       id="filter6627">
      <feGaussianBlur
         inkscape:collect="always"
         stdDeviation="1.5483274"
         id="feGaussianBlur6629" />
    </filter>
    <linearGradient
       inkscape:collect="always"
       xlink:href="#linearGradient6350-9"
       id="linearGradient6413-3"
       gradientUnits="userSpaceOnUse"
       gradientTransform="matrix(0.21115535,-0.00198827,9.5075222e-4,0.17215391,320.98394,-66.56238)"
       x1="-1228.9572"
       y1="530.2193"
       x2="-1046.0428"
       y2="530.2193" />
    <linearGradient
       id="linearGradient6350-9">
      <stop
         style="stop-color:#b7bec8;stop-opacity:1;"
         offset="0"
         id="stop6352-1" />
      <stop
         style="stop-color:#ffffff;stop-opacity:1;"
         offset="1"
         id="stop6354-4" />
    </linearGradient>
    <linearGradient
       inkscape:collect="always"
       xlink:href="#linearGradient6336-3"
       id="linearGradient6415-1"
       gradientUnits="userSpaceOnUse"
       x1="-1120.349"
       y1="359.39752"
       x2="-1002.9916"
       y2="359.39752" />
    <linearGradient
       id="linearGradient6336-3">
      <stop
         style="stop-color:#3771c8;stop-opacity:1;"
         offset="0"
         id="stop6338-8" />
      <stop
         style="stop-color:#749cd9;stop-opacity:1;"
         offset="1"
         id="stop6340-5" />
    </linearGradient>
    <linearGradient
       inkscape:collect="always"
       xlink:href="#linearGradient6336-3"
       id="linearGradient6417-1"
       gradientUnits="userSpaceOnUse"
       gradientTransform="matrix(0.17215391,-0.00124145,0.00124145,0.17215391,274.42331,859.28619)"
       x1="-1057.7493"
       y1="526.18109"
       x2="-930.67377"
       y2="526.18109" />
    <linearGradient
       id="linearGradient6650">
      <stop
         style="stop-color:#3771c8;stop-opacity:1;"
         offset="0"
         id="stop6652" />
      <stop
         style="stop-color:#749cd9;stop-opacity:1;"
         offset="1"
         id="stop6654" />
    </linearGradient>
    <linearGradient
       inkscape:collect="always"
       xlink:href="#linearGradient6336-3"
       id="linearGradient6419-0"
       gradientUnits="userSpaceOnUse"
       x1="-940.54187"
       y1="349.29602"
       x2="-889.85449"
       y2="349.29602" />
    <linearGradient
       id="linearGradient6657">
      <stop
         style="stop-color:#3771c8;stop-opacity:1;"
         offset="0"
         id="stop6659" />
      <stop
         style="stop-color:#749cd9;stop-opacity:1;"
         offset="1"
         id="stop6661" />
    </linearGradient>
    <linearGradient
       y2="349.29602"
       x2="-889.85449"
       y1="349.29602"
       x1="-940.54187"
       gradientUnits="userSpaceOnUse"
       id="linearGradient6668"
       xlink:href="#linearGradient6336-3"
       inkscape:collect="always" />
    <linearGradient
       inkscape:collect="always"
       xlink:href="#linearGradient6336-3"
       id="linearGradient6721"
       gradientUnits="userSpaceOnUse"
       gradientTransform="matrix(0.16252936,-0.05676897,0.05676897,0.16252936,291.52888,805.34911)"
       x1="-1057.7493"
       y1="526.18109"
       x2="-930.67377"
       y2="526.18109" />
    <linearGradient
       inkscape:collect="always"
       xlink:href="#linearGradient6350-9"
       id="linearGradient6725"
       gradientUnits="userSpaceOnUse"
       gradientTransform="matrix(0.19920002,-0.07007059,0.05649384,0.16262324,335.11489,-135.45575)"
       x1="-1228.9572"
       y1="530.2193"
       x2="-1046.0428"
       y2="530.2193" />
    <filter
       inkscape:collect="always"
       id="filter6732">
      <feGaussianBlur
         inkscape:collect="always"
         stdDeviation="0.97231853"
         id="feGaussianBlur6734" />
    </filter>
  </defs>
  <sodipodi:namedview
     id="base"
     pagecolor="#ffffff"
     bordercolor="#666666"
     borderopacity="1.0"
     inkscape:pageopacity="0.0"
     inkscape:pageshadow="2"
     inkscape:zoom="1"
     inkscape:cx="-54.884646"
     inkscape:cy="94.340922"
     inkscape:document-units="px"
     inkscape:current-layer="layer1"
     showgrid="false"
     inkscape:window-width="1377"
     inkscape:window-height="851"
     inkscape:window-x="391"
     inkscape:window-y="122"
     inkscape:window-maximized="0" />
  <metadata
     id="metadata5772">
    <rdf:RDF>
      <cc:Work
         rdf:about="">
        <dc:format>image/svg+xml</dc:format>
        <dc:type
           rdf:resource="http://purl.org/dc/dcmitype/StillImage" />
        <dc:title />
      </cc:Work>
    </rdf:RDF>
  </metadata>
  <g
     inkscape:label="Layer 1"
     inkscape:groupmode="layer"
     id="layer1"
     transform="translate(0,-924.36218)">
    <path
       style="opacity:0.43814434;fill:#000000;fill-opacity:1;stroke:none;filter:url(#filter6627)"
       d="m 13.934068,944.26767 -2.560941,77.70033 c -0.237547,7.2042 3.11373,10.0339 4.958165,14.5444 l 1.102544,0 104.141094,-5.6977 c 0,0 -7.72669,-6.5232 -9.39473,-11.065 -8.8948,-24.21922 0,-77.40273 0,-77.40273 z"
       id="rect5775-0"
       inkscape:connector-curvature="0"
       sodipodi:nodetypes="cscccscc"
       transform="matrix(0.99843939,-0.05584605,0.05820296,1.0405772,-57.190017,-34.457449)" />
    <path
       style="fill:#ffe680;fill-opacity:1;stroke:#6e5800;stroke-width:2;stroke-miterlimit:4;stroke-opacity:1;stroke-dasharray:none"
       d="m 11.558834,946.76489 1.78231,77.72211 c 0.16515,7.2062 3.669224,9.8443 5.762674,14.2448 l 1.100824,-0.062 103.660378,-11.5047 c 0,0 -8.07892,-6.0815 -9.998,-10.5231 -10.23347,-23.68462 -4.32264,-77.28187 -4.32264,-77.28187 z"
       id="rect5775"
       inkscape:connector-curvature="0"
       sodipodi:nodetypes="cscccscc" />
    <path
       style="opacity:0.23195879;fill:#000000;fill-opacity:1;stroke:none;filter:url(#filter6732)"
       d="m 104.78125,928.17468 c -0.1219,0.007 -0.22994,0.0228 -0.34375,0.0625 -0.99407,0.34721 -1.45401,1.92569 -1.375,4.09375 l -12.4375,3.1875 c -2.63635,-3.18429 -5.82524,-4.78892 -8.53125,-3.84375 -3.94615,1.37833 -5.40506,7.64441 -3.5,14.40625 -1.17899,0.39161 -2.41367,0.81291 -3.65625,1.25 -3.63247,1.27777 -6.94423,2.56854 -9.71875,3.71875 l 0.84375,2.5 c 2.88231,-0.83966 6.3052,-1.94105 9.9375,-3.21875 1.24258,-0.43709 2.46025,-0.88103 3.625,-1.3125 2.72919,6.41773 7.73082,10.37109 11.65625,9 2.71769,-0.94925 4.24427,-4.21635 4.3125,-8.375 l 11.59375,-5.34375 c 1.32231,1.84308 2.69638,2.8571 3.71875,2.5 1.82096,-0.63603 1.85139,-5.31591 0.0625,-10.4375 -1.67709,-4.80149 -4.35902,-8.29333 -6.1875,-8.1875 z"
       id="path6348-5"
       inkscape:connector-curvature="0"
       transform="matrix(0.99245058,0.12264516,-0.10168064,0.82280472,84.470905,161.15059)" />
    <g
       id="g6407"
       transform="matrix(0.92691064,-0.3752821,0.3752821,0.92691064,-370.10182,98.489066)">
      <path
         id="path6348"
         transform="translate(0,924.36218)"
         d="M 81.28125,25.375 C 77.430762,25.41126 73.872312,25.557399 70.875,25.75 l 0,2.65625 c 2.999039,0.136124 6.587198,0.192505 10.4375,0.15625 10.537258,-0.09922 19.06738,-0.867133 19.0625,-1.75 -0.005,-0.882867 -8.556492,-1.53672 -19.09375,-1.4375 z"
         style="fill:url(#linearGradient6413);fill-opacity:1;stroke:#9d9d9d;stroke-width:1;stroke-miterlimit:4;stroke-opacity:1;stroke-dasharray:none"
         inkscape:connector-curvature="0" />
      <path
         transform="matrix(0.14061839,-0.00101403,8.9005282e-4,0.12342622,242.1622,905.74629)"
         d="m -1004.0916,359.39752 c 0,62.48388 -25.7789,113.13708 -57.5787,113.13708 -31.7998,0 -57.5787,-50.6532 -57.5787,-113.13708 0,-62.48388 25.7789,-113.13708 57.5787,-113.13708 31.7998,0 57.5787,50.6532 57.5787,113.13708 z"
         sodipodi:ry="113.13708"
         sodipodi:rx="57.578693"
         sodipodi:cy="359.39752"
         sodipodi:cx="-1061.6703"
         id="path5823"
         style="fill:url(#linearGradient6415);fill-opacity:1;stroke:#142b4b;stroke-width:15.18077469;stroke-miterlimit:4;stroke-opacity:1;stroke-dasharray:none"
         sodipodi:type="arc" />
      <path
         sodipodi:nodetypes="zcczz"
         inkscape:connector-curvature="0"
         id="rect5821"
         d="m 96.24915,943.3339 18.37377,1.43543 -0.15701,12.3328 -18.1039,1.88293 c -4.204499,-3.76252 -4.268925,-11.77922 -0.11286,-15.65116 z"
         style="fill:url(#linearGradient6417);fill-opacity:1;stroke:#142b4b;stroke-width:1.99999988;stroke-miterlimit:4;stroke-opacity:1;stroke-dasharray:none" />
      <path
         transform="matrix(0.14405392,-0.00103881,8.1536373e-4,0.11306853,246.96479,910.5766)"
         d="m -890.95452,349.29602 c 0,47.9787 -10.85426,86.87312 -24.24366,86.87312 -13.38941,0 -24.24366,-38.89442 -24.24366,-86.87312 0,-47.9787 10.85425,-86.87312 24.24366,-86.87312 13.3894,0 24.24366,38.89442 24.24366,86.87312 z"
         sodipodi:ry="86.873116"
         sodipodi:rx="24.243662"
         sodipodi:cy="349.29602"
         sodipodi:cx="-915.19818"
         id="path5825"
         style="fill:url(#linearGradient6419);fill-opacity:1;stroke:#142b4b;stroke-width:15.67058849;stroke-miterlimit:4;stroke-opacity:1;stroke-dasharray:none"
         sodipodi:type="arc" />
    </g>
    <text
       xml:space="preserve"
       style="font-size:40px;font-style:normal;font-weight:normal;line-height:125%;letter-spacing:0px;word-spacing:0px;fill:#000000;fill-opacity:1;stroke:none;font-family:Sans"
       x="-187.17645"
       y="1007.5352"
       id="text3032"
       sodipodi:linespacing="125%"
       transform="matrix(0.99843939,-0.05584605,0.05584605,0.99843939,0,0)"><tspan
         sodipodi:role="line"
         id="tspan3034"
         x="-187.17645"
         y="1007.5352" /></text>
    <g
       transform="matrix(0.94361753,-0.15243901,0.25506763,1.0185459,0,0)"
       style="font-size:27.86112595px;font-style:normal;font-variant:normal;font-weight:normal;font-stretch:normal;line-height:125%;letter-spacing:0px;word-spacing:0px;fill:#000000;fill-opacity:1;stroke:none;font-family:Purisa;-inkscape-font-specification:Purisa"
       id="text3036">
      <path
         d="m -223.8565,941.20805 c -10e-6,-0.7058 -0.0372,-1.133 -0.11144,-1.28161 -0.0557,-0.14858 -0.23219,-0.22287 -0.52936,-0.22289 -0.14861,2e-5 -0.83585,0.0929 -2.06173,0.27861 -1.20733,0.18576 -2.1546,0.27863 -2.84183,0.27861 -0.44579,2e-5 -1.07731,0.0743 -1.89456,0.22289 -0.81727,0.13003 -1.38378,0.19504 -1.69953,0.19503 -0.48293,1e-5 -0.87299,-0.0929 -1.17017,-0.27861 -0.29719,-0.2043 -0.44578,-0.46434 -0.44577,-0.78012 -10e-6,-0.52005 0.34361,-0.87296 1.03086,-1.05872 0.68723,-0.20429 2.2846,-0.48291 4.79211,-0.83583 3.7891,-0.52006 7.19744,-1.04013 10.22504,-1.56022 2.37745,-0.39004 3.80766,-0.58507 4.29061,-0.58509 0.76151,2e-5 1.4116,0.13933 1.95028,0.41792 0.55719,0.26006 0.8358,0.57582 0.83583,0.94728 -3e-5,0.3715 -0.26935,0.72441 -0.80797,1.05872 -0.53868,0.31578 -1.37451,0.47366 -2.5075,0.47364 -1.20734,2e-5 -2.6004,0.1579 -4.17917,0.47364 l -1.97814,0.41791 -0.0557,1.92242 c -0.0186,0.81728 -0.19505,2.52609 -0.52937,5.12645 -0.31577,2.60038 -0.63153,4.99643 -0.94727,7.18817 l -0.44578,3.28761 c -0.20433,0.89156 -0.67797,1.33734 -1.42092,1.33734 -0.3715,0 -0.64082,-0.1486 -0.80797,-0.44578 -0.16718,-0.29719 -0.25077,-0.81726 -0.25075,-1.56022 -2e-5,-0.96585 0.26002,-3.30619 0.78011,-7.02101 0.52006,-3.7148 0.7801,-6.38018 0.78011,-7.99614"
         style="font-style:italic;font-weight:bold;fill:#0000ff;font-family:Purisa;-inkscape-font-specification:Purisa"
         id="path3830" />
      <path
         d="m -198.45368,949.14847 c 0.29717,-0.83583 0.67793,-1.74595 1.1423,-2.73039 0.46434,-1.00299 0.83582,-1.82025 1.11445,-2.45178 0.27859,-0.6315 0.4179,-1.11443 0.41792,-1.44878 -2e-5,-0.52006 -0.13933,-1.17944 -0.41792,-1.97814 -0.26006,-0.81724 -0.46437,-1.32803 -0.61295,-1.53236 -0.14861,-0.11143 -0.44579,-0.16715 -0.89155,-0.16717 -0.81728,2e-5 -1.9503,0.20434 -3.39906,0.61295 -2.97186,0.83585 -5.19146,3.0926 -6.65881,6.77025 -0.55723,1.46736 -0.83584,2.48894 -0.83583,3.06473 -10e-6,0.48293 0.065,1.08659 0.19503,1.81097 0.42719,2.63752 1.47663,3.95628 3.1483,3.95628 0.44577,0 0.97513,-0.10216 1.58809,-0.30647 0.65008,-0.22289 1.59736,-0.99371 2.84183,-2.31248 1.26302,-1.33733 2.05242,-2.4332 2.3682,-3.28761 m 5.15431,-8.72053 c -3e-5,1.61596 -0.34365,3.41764 -1.03087,5.40506 -0.68726,1.96886 -1.50452,3.72411 -2.45177,5.26575 -0.92873,1.54165 -1.88529,2.84184 -2.8697,3.90056 -0.96587,1.04015 -1.74598,1.56022 -2.34034,1.56022 -0.0743,0 -0.17646,0.065 -0.30647,0.19503 -0.11145,0.13002 -0.20432,0.22289 -0.27861,0.27861 -0.31577,0.18574 -0.89157,0.33433 -1.72739,0.44578 -0.81727,0.13001 -1.59738,0.19502 -2.34033,0.19502 -0.57581,0 -1.03087,-0.065 -1.3652,-0.19502 -0.33434,-0.13002 -0.72439,-0.39935 -1.17017,-0.80798 -0.70582,-0.63151 -1.27232,-1.56022 -1.69952,-2.78611 -0.40864,-1.24446 -0.61295,-2.52607 -0.61295,-3.84483 0,-2.15459 0.66866,-4.30918 2.006,-6.46379 1.33733,-2.17315 2.82325,-3.73337 4.45778,-4.68066 1.3559,-0.7801 2.33104,-1.18873 2.92542,-1.22589 0.14858,-0.0371 0.54792,-0.29717 1.19803,-0.78012 0.65008,-0.4829 1.18872,-0.72436 1.61594,-0.72438 0.26003,2e-5 0.53864,-0.12072 0.83584,-0.3622 0.29717,-0.26002 0.73366,-0.39003 1.30947,-0.39006 1.22587,3e-5 2.17315,0.4458 2.84184,1.33734 0.66864,0.873 1.00297,2.09889 1.003,3.67767"
         style="font-style:italic;font-weight:bold;fill:#0000ff;font-family:Purisa;-inkscape-font-specification:Purisa"
         id="path3832" />
      <path
         d="m -181.03961,937.86471 c -0.46437,2e-5 -0.76155,0.0465 -0.89156,0.13931 -0.13003,0.0929 -0.24147,0.33435 -0.33433,0.72439 -0.13003,0.63154 -0.24148,1.98744 -0.33433,4.06772 -0.0929,2.06174 -0.24148,4.15132 -0.44578,6.26876 -0.18575,2.11745 -0.48294,3.70553 -0.89156,4.76425 l -0.39005,1.003 1.1423,0 c 1.67166,0 3.83554,-1.13302 6.49165,-3.39906 1.52305,-1.2816 2.63749,-2.58179 3.34333,-3.90056 0.70579,-1.31874 1.26302,-2.93469 1.67167,-4.84783 0.12999,-0.68723 0.195,-1.11443 0.19503,-1.28161 -3e-5,-0.37147 -0.20434,-0.82653 -0.61295,-1.3652 -0.33435,-0.42719 -0.75227,-0.74294 -1.25375,-0.94728 -0.48295,-0.22287 -1.32807,-0.44576 -2.53536,-0.66866 -2.22891,-0.37147 -3.94701,-0.55721 -5.15431,-0.55723 m -8.60909,0.64081 c 0.13002,-0.44576 0.39005,-0.85439 0.78011,-1.22589 0.39005,-0.39004 0.72439,-0.58506 1.003,-0.58508 0.14859,-0.0557 0.29718,-0.14858 0.44578,-0.27861 0.14859,-0.14858 0.29718,-0.29717 0.44578,-0.44578 0.14858,-0.14857 0.47363,-0.29717 0.97514,-0.44578 0.50149,-0.16715 1.16087,-0.28788 1.97814,-0.3622 1.98741,-0.18571 3.34332,-0.27858 4.06772,-0.27861 0.8544,3e-5 1.87597,0.10218 3.06473,0.30648 2.91611,0.48294 5.00569,1.1609 6.26875,2.03386 1.26301,0.85442 1.89453,2.07103 1.89456,3.64981 -3e-5,0.50151 -0.0743,1.10517 -0.22289,1.81097 -0.40866,1.93172 -1.15162,3.76126 -2.22889,5.48864 -1.07732,1.7274 -2.30321,3.17617 -3.67767,4.34634 -1.35593,1.17017 -2.73969,2.13602 -4.15131,2.89755 -1.41164,0.76154 -2.74898,1.27233 -4.012,1.53236 -0.46436,0.11145 -0.82656,0.2879 -1.08658,0.52937 -0.26005,0.26003 -0.43651,0.5015 -0.52937,0.72439 -0.0743,0.22288 -0.23218,0.41791 -0.47363,0.58508 -0.24148,0.18574 -0.5851,0.27861 -1.03087,0.27861 -0.33434,0 -0.60366,-0.065 -0.80797,-0.19503 -0.20432,-0.11144 -0.29719,-0.26932 -0.27861,-0.47364 -0.0186,-0.0186 -0.13931,-0.0743 -0.36219,-0.16716 -0.20433,-0.0929 -0.39007,-0.22289 -0.55723,-0.39006 -0.1486,-0.16717 -0.22289,-0.39934 -0.22289,-0.69653 0,-0.27861 0.0836,-0.58508 0.25075,-0.91941 0.16716,-0.35291 0.44577,-0.59437 0.83584,-0.72439 0.24145,-0.14859 0.48292,-0.80797 0.72439,-1.97814 0.14858,-0.72439 0.25074,-1.46735 0.30647,-2.22889 0.0743,-0.76153 0.16716,-1.91313 0.27861,-3.45478 0.13001,-1.56022 0.30646,-3.2876 0.52936,-5.18217 l 0.5015,-4.31848 -0.6408,0.0557 c -0.57581,0.0743 -1.17947,0.35292 -1.81098,0.83583 -0.63152,0.46437 -1.05873,0.69654 -1.28161,0.69653 -0.22289,1e-5 -0.44578,-0.13929 -0.66867,-0.41792 -0.22289,-0.27859 -0.33433,-0.5572 -0.33433,-0.83583 0,-0.0186 0,-0.0464 0,-0.0836 0.0186,-0.0371 0.0279,-0.065 0.0279,-0.0836"
         style="font-style:italic;font-weight:bold;fill:#0000ff;font-family:Purisa;-inkscape-font-specification:Purisa"
         id="path3834" />
      <path
         d="m -153.50585,949.14847 c 0.29717,-0.83583 0.67793,-1.74595 1.1423,-2.73039 0.46434,-1.00299 0.83582,-1.82025 1.11445,-2.45178 0.27859,-0.6315 0.4179,-1.11443 0.41792,-1.44878 -2e-5,-0.52006 -0.13933,-1.17944 -0.41792,-1.97814 -0.26006,-0.81724 -0.46437,-1.32803 -0.61295,-1.53236 -0.14861,-0.11143 -0.44579,-0.16715 -0.89155,-0.16717 -0.81728,2e-5 -1.9503,0.20434 -3.39906,0.61295 -2.97186,0.83585 -5.19146,3.0926 -6.65881,6.77025 -0.55723,1.46736 -0.83584,2.48894 -0.83583,3.06473 -1e-5,0.48293 0.065,1.08659 0.19503,1.81097 0.42719,2.63752 1.47663,3.95628 3.1483,3.95628 0.44577,0 0.97513,-0.10216 1.58809,-0.30647 0.65008,-0.22289 1.59736,-0.99371 2.84183,-2.31248 1.26302,-1.33733 2.05242,-2.4332 2.3682,-3.28761 m 5.15431,-8.72053 c -3e-5,1.61596 -0.34365,3.41764 -1.03087,5.40506 -0.68726,1.96886 -1.50452,3.72411 -2.45177,5.26575 -0.92873,1.54165 -1.88529,2.84184 -2.8697,3.90056 -0.96587,1.04015 -1.74598,1.56022 -2.34034,1.56022 -0.0743,0 -0.17646,0.065 -0.30647,0.19503 -0.11145,0.13002 -0.20432,0.22289 -0.27861,0.27861 -0.31577,0.18574 -0.89157,0.33433 -1.72739,0.44578 -0.81727,0.13001 -1.59738,0.19502 -2.34033,0.19502 -0.57581,0 -1.03087,-0.065 -1.3652,-0.19502 -0.33434,-0.13002 -0.72439,-0.39935 -1.17017,-0.80798 -0.70582,-0.63151 -1.27232,-1.56022 -1.69952,-2.78611 -0.40864,-1.24446 -0.61295,-2.52607 -0.61295,-3.84483 0,-2.15459 0.66866,-4.30918 2.006,-6.46379 1.33733,-2.17315 2.82325,-3.73337 4.45778,-4.68066 1.3559,-0.7801 2.33104,-1.18873 2.92542,-1.22589 0.14858,-0.0371 0.54792,-0.29717 1.19803,-0.78012 0.65008,-0.4829 1.18873,-0.72436 1.61594,-0.72438 0.26003,2e-5 0.53864,-0.12072 0.83584,-0.3622 0.29717,-0.26002 0.73366,-0.39003 1.30947,-0.39006 1.22587,3e-5 2.17315,0.4458 2.84184,1.33734 0.66864,0.873 1.00297,2.09889 1.003,3.67767"
         style="font-style:italic;font-weight:bold;fill:#0000ff;font-family:Purisa;-inkscape-font-specification:Purisa"
         id="path3836" />
    </g>
    <text
       xml:space="preserve"
       style="font-size:27.86112595000000169px;font-style:normal;font-variant:normal;font-weight:normal;font-stretch:normal;line-height:125%;letter-spacing:0px;word-spacing:0px;fill:#000000;fill-opacity:1;stroke:none;font-family:Purisa;-inkscape-font-specification:Purisa;opacity:0"
       x="-236.19803"
       y="957.24512"
       id="text3036-2"
       sodipodi:linespacing="125%"
       transform="matrix(0.94361751,-0.15243901,0.25506763,1.0185459,0,0)"><tspan
         sodipodi:role="line"
         id="tspan3038-0"
         x="-236.19803"
         y="957.24512"
         style="font-style:italic;font-variant:normal;font-weight:bold;font-stretch:normal;fill:#0000ff;font-family:Purisa;-inkscape-font-specification:Purisa">TODO</tspan></text>
  </g>
</svg>
